<svg fill="none" height="66" viewBox="0 0 66 66" width="66" xmlns="http://www.w3.org/2000/svg"><path d="m0 28.5648c0-23.52311 5.04169-28.5648 28.5648-28.5648h8.8704c23.5231 0 28.5648 5.04169 28.5648 28.5648v8.8704c0 23.5231-5.0417 28.5648-28.5648 28.5648h-8.8704c-23.52311 0-28.5648-5.0417-28.5648-28.5648z" fill="#ff6700"/><path clipRule="evenodd" d="m35.813 35.8718c-.1142-2.3144.0942-6.1316.6933-12.4758 1.3049-13.81881 4.689-15.29993 8.1226-13.58091 3.4337 1.71901 6.3784 7.19441 4.5306 14.03121-1.1824 4.375-4.6455 11.0686-7.0929 14.272 4.6912 2.9458 6.7708 7.9805 5.8963 11.8634-.8305 3.6876-6.8729 6.8443-14.9858 6.8443-8.113 0-14.0815-3.0907-14.9858-6.8443-.9391-3.8977 1.1765-8.9504 5.9189-11.8914-2.4462-3.2139-5.8934-9.8825-7.0726-14.2453-1.8478-6.8368 1.097-12.3122 4.5306-14.03124 3.4336-1.71902 6.9268-.21637 8.1226 13.58094.5502 6.3474.7422 10.1657.6278 12.48.9066-.1331 1.8598-.2039 2.8585-.2039.9912 0 1.9368.0698 2.8359.201zm-2.8513 12.4122c5.5981 0 10.7692-1.7709 10.7692-2.7829.0001-2.6126-4.2603-6.3857-10.7692-6.3857-6.5088 0-10.7615 3.7463-10.7692 6.3857-.0029 1.0294 5.1711 2.7829 10.7692 2.7829zm-7.2398-11.9865c.2536.4381.2405.4129.3913.6613.4633-.1641 1.213-.4686 1.9135-.6534.0128-3.1703-.3098-5.2543-.8852-11.0532-.9865-9.9411-2.5158-11.2077-3.9076-10.1652-1.3919 1.0426-2.4461 4.8006-1.4265 9.7952.7378 3.6144 2.812 9.5107 3.9145 11.4153zm14.4748 0c-.2536.4381-.2404.4129-.3913.6613-.4633-.1641-1.213-.4686-1.9135-.6534-.0128-3.1703.3098-5.2543.8852-11.0532.9865-9.9411 2.5158-11.2077 3.9076-10.1652 1.3919 1.0426 2.4461 4.8006 1.4265 9.7952-.7378 3.6144-2.812 9.5107-3.9145 11.4153z" fill="#fff" fillRule="evenodd"/></svg>