<svg width="60" height="60" viewBox="0 0 60 60" fill="none" xmlns="http://www.w3.org/2000/svg">
<path d="M0 25.968C0 4.58335 4.58335 0 25.968 0H34.032C55.4166 0 60 4.58335 60 25.968V34.032C60 55.4167 55.4166 60 34.032 60H25.968C4.58335 60 0 55.4167 0 34.032V25.968Z" fill="#78C25E"/>
<path fillRule="evenodd" clipRule="evenodd" d="M32.5577 32.6107C32.4538 30.5066 32.6433 27.0364 33.1879 21.269C34.3742 8.70644 37.4506 7.35997 40.5721 8.92272C43.6936 10.4855 46.3707 15.4631 44.6908 21.6784C43.6159 25.6556 40.4676 31.7407 38.2427 34.6529C42.5075 37.331 44.398 41.9079 43.603 45.4378C42.848 48.7902 37.3549 51.6599 29.9795 51.6599C22.6041 51.6599 17.1782 48.8502 16.356 45.4378C15.5024 41.8944 17.4256 37.3011 21.7369 34.6274C19.5131 31.7058 16.3793 25.6434 15.3073 21.6772C13.6274 15.4619 16.3045 10.4843 19.426 8.92151C22.5475 7.35877 25.7231 8.72481 26.8102 21.2678C27.3104 27.0382 27.4849 30.5093 27.3809 32.6133C28.2051 32.4923 29.0716 32.428 29.9795 32.428C30.8806 32.428 31.7403 32.4914 32.5577 32.6107ZM29.9656 43.8945C35.0548 43.8945 39.7558 42.2846 39.7558 41.3646C39.7558 38.9895 35.8827 35.5594 29.9656 35.5594C24.0484 35.5594 20.1823 38.9651 20.1754 41.3646C20.1727 42.3003 24.8764 43.8945 29.9656 43.8945ZM23.3839 32.9976C23.6144 33.3959 23.6025 33.373 23.7396 33.5988C24.1608 33.4496 24.8423 33.1728 25.4792 33.0048C25.4908 30.1227 25.1976 28.2282 24.6744 22.9564C23.7776 13.9191 22.3874 12.7676 21.1221 13.7154C19.8568 14.6632 18.8984 18.0796 19.8252 22.6201C20.496 25.9059 22.3817 31.2662 23.3839 32.9976ZM36.5429 32.9976C36.3123 33.3959 36.3242 33.373 36.1871 33.5988C35.7659 33.4496 35.0844 33.1728 34.4476 33.0048C34.4359 30.1227 34.7292 28.2282 35.2523 22.9564C36.1491 13.9191 37.5394 12.7676 38.8047 13.7154C40.07 14.6632 41.0284 18.0796 40.1015 22.6201C39.4308 25.9059 37.5451 31.2662 36.5429 32.9976Z" fill="white"/>
</svg>
