<svg width="36" height="36" viewBox="0 0 36 36" fill="none" xmlns="http://www.w3.org/2000/svg">
<rect width="36" height="36" rx="18" fill="#FF6700"/>
<rect width="36" height="36" rx="18" fill="#FF6700"/>
<path fill-rule="evenodd" clip-rule="evenodd" d="M19.2811 19.475C19.2177 18.2669 19.3334 16.2743 19.6656 12.9627C20.3894 5.74926 22.2665 4.97611 24.171 5.87344C26.0755 6.77077 27.7089 9.62894 26.6839 13.1977C26.0281 15.4815 24.1072 18.9755 22.7497 20.6477C25.3518 22.1854 26.5053 24.8135 26.0202 26.8404C25.5596 28.7653 22.2081 30.4131 17.7081 30.4131C13.2082 30.4131 9.89761 28.7998 9.39601 26.8404C8.87515 24.8058 10.0486 22.1683 12.679 20.6331C11.3222 18.9555 9.41017 15.4744 8.75613 13.197C7.7312 9.62825 9.36455 6.77008 11.2691 5.87275C13.1736 4.97542 15.1111 5.7598 15.7744 12.962C16.0796 16.2754 16.1861 18.2685 16.1226 19.4766C16.6255 19.4071 17.1542 19.3701 17.7081 19.3701C18.2579 19.3701 18.7824 19.4066 19.2811 19.475ZM17.6996 25.9542C20.8047 25.9542 23.6729 25.0298 23.6729 24.5015C23.6729 23.1378 21.3099 21.1682 17.6996 21.1682C14.0894 21.1682 11.7305 23.1238 11.7263 24.5015C11.7247 25.0389 14.5945 25.9542 17.6996 25.9542ZM13.6839 19.6972C13.8246 19.9259 13.8173 19.9128 13.901 20.0424C14.1579 19.9568 14.5738 19.7978 14.9623 19.7014C14.9694 18.0465 14.7905 16.9586 14.4713 13.9316C13.9241 8.74238 13.0759 8.08119 12.3039 8.6254C11.5319 9.16962 10.9472 11.1313 11.5127 13.7385C11.9219 15.6252 13.0724 18.703 13.6839 19.6972ZM21.7126 19.6972C21.5719 19.9259 21.5792 19.9128 21.4955 20.0424C21.2386 19.9568 20.8228 19.7978 20.4342 19.7014C20.4271 18.0465 20.606 16.9586 20.9252 13.9316C21.4724 8.74238 22.3206 8.08119 23.0926 8.6254C23.8646 9.16962 24.4493 11.1313 23.8838 13.7385C23.4746 15.6252 22.3241 18.703 21.7126 19.6972Z" fill="white"/>
</svg>
